<svg width="32" height="32" viewBox="0 0 32 32" fill="none" xmlns="http://www.w3.org/2000/svg">
<path d="M16.0042 3.44373C18.6085 6.74981 19.9986 10.8268 19.9482 15.0102V16.0088L20.8074 16.5316C21.9176 17.2037 22.7455 18.246 23.1404 19.4688C22.7937 19.2135 22.431 18.98 22.0545 18.7697L19.7633 17.4833L19.3516 20.0797C19.3159 20.3091 19.2681 20.5366 19.2084 20.7611H12.7882C12.6927 20.4674 12.6151 20.1737 12.5435 19.8682L12.0244 17.5185L9.91223 18.6934C9.55935 18.8907 9.21865 19.1084 8.89192 19.3454C9.29448 18.1368 10.1051 17.1003 11.1891 16.4083L12.0065 15.8855V14.9573C12.0213 10.7909 13.4282 6.74493 16.0102 3.44373H16.0042ZM16.0102 1.00003C15.8763 1.00036 15.747 1.04834 15.6462 1.13514L15.5925 1.18213C12.1519 4.97061 10.2413 9.86948 10.2225 14.9515C8.76244 15.8841 7.68169 17.2921 7.16909 18.9296C6.65649 20.567 6.74464 22.3298 7.41815 23.9097C8.12765 22.3671 9.3137 21.0842 10.8072 20.2442C10.957 20.883 11.1565 21.5094 11.4039 22.1181C11.4353 22.2351 11.5048 22.3387 11.6019 22.413C11.6989 22.4873 11.818 22.5281 11.9409 22.5293H20.2227C20.3898 22.5293 20.5568 22.3707 20.6404 22.124C20.8818 21.5453 21.0502 20.9396 21.1416 20.3205C22.638 21.1571 23.825 22.441 24.5307 23.9861C25.2448 22.4139 25.3554 20.6401 24.8418 18.9937C24.3283 17.3474 23.2256 15.9403 21.7382 15.0337C21.7973 9.92174 19.8968 4.97574 16.4159 1.18213C16.3641 1.12508 16.3007 1.07938 16.2297 1.04801C16.1588 1.01664 16.082 1.00029 16.0042 1.00003H16.0102Z" fill="#4EA8DE"/>
<path d="M16.0041 14.4639C15.5458 14.4639 15.0978 14.3303 14.7165 14.08C14.3352 13.8297 14.0377 13.4738 13.8615 13.0573C13.6853 12.6408 13.6383 12.1822 13.7264 11.7394C13.8145 11.2967 14.0338 10.8895 14.3566 10.5692C14.6795 10.2489 15.0913 10.0299 15.5404 9.93979C15.9895 9.84963 16.4556 9.89238 16.88 10.0626C17.3044 10.2329 17.6681 10.523 17.9253 10.8965C18.1825 11.2699 18.3216 11.71 18.3251 12.1612V12.1612C18.3323 12.4536 18.2808 12.7445 18.1737 13.0173C18.0666 13.2901 17.906 13.5395 17.701 13.7511C17.4959 13.9628 17.2506 14.1326 16.9789 14.2509C16.7072 14.3691 16.4144 14.4335 16.1175 14.4404C16.0799 14.4463 16.0416 14.4463 16.0041 14.4404V14.4639Z" fill="#4EA8DE"/>
<path d="M19.2322 23.992C19.083 23.9873 18.9342 24.012 18.7947 24.0646C18.6553 24.1173 18.5279 24.1968 18.4201 24.2986C18.3122 24.4004 18.2262 24.5223 18.1669 24.6573C18.1075 24.7923 18.0762 24.9376 18.0747 25.0846V28.5504C18.0747 28.8527 18.1967 29.1425 18.4137 29.3563C18.6308 29.57 18.9252 29.69 19.2322 29.69C19.5392 29.69 19.8337 29.57 20.0508 29.3563C20.2678 29.1425 20.3898 28.8527 20.3898 28.5504V25.1316C20.3946 24.9851 20.3697 24.8391 20.3165 24.7022C20.2634 24.5653 20.1832 24.4401 20.0804 24.3341C19.9777 24.228 19.8545 24.1431 19.7181 24.0844C19.5817 24.0257 19.4348 23.9943 19.2859 23.992H19.2322Z" fill="#5E60CE"/>
<path d="M12.7881 23.992C12.6362 23.9841 12.4843 24.0063 12.3414 24.0574C12.1985 24.1084 12.0675 24.1873 11.9561 24.2892C11.8448 24.3912 11.7554 24.5141 11.6933 24.6508C11.6313 24.7874 11.5977 24.9349 11.5947 25.0846V28.5504C11.5947 28.8527 11.7167 29.1425 11.9338 29.3562C12.1508 29.57 12.4453 29.69 12.7523 29.69C13.0593 29.69 13.3537 29.57 13.5708 29.3562C13.7879 29.1425 13.9098 28.8527 13.9098 28.5504V25.1316C13.9146 24.9851 13.8897 24.8391 13.8366 24.7022C13.7835 24.5653 13.7032 24.4401 13.6004 24.3341C13.4977 24.228 13.3745 24.1431 13.2381 24.0844C13.1017 24.0257 12.9548 23.9942 12.806 23.992H12.7881Z" fill="#5E60CE"/>
<path d="M15.9207 23.992C15.7718 23.9889 15.6238 24.0147 15.485 24.0679C15.3463 24.1211 15.2195 24.2007 15.112 24.3022C15.0045 24.4037 14.9184 24.525 14.8585 24.6592C14.7987 24.7935 14.7663 24.938 14.7632 25.0846V29.8604C14.7632 30.1626 14.8851 30.4525 15.1022 30.6662C15.3193 30.8799 15.6137 31 15.9207 31C16.2277 31 16.5221 30.8799 16.7392 30.6662C16.9563 30.4525 17.0783 30.1626 17.0783 29.8604V25.161C17.083 25.0145 17.0581 24.8685 17.005 24.7316C16.9519 24.5947 16.8716 24.4695 16.7689 24.3634C16.6662 24.2574 16.543 24.1725 16.4066 24.1138C16.2702 24.055 16.1233 24.0236 15.9744 24.0214L15.9207 23.992Z" fill="#5E60CE"/>
</svg>
